<svg xmlns="http://www.w3.org/2000/svg" viewBox="0 0 1200 630" fill="none">
  <rect width="1200" height="630" fill="#0B0F1A"/>
  <rect x="0" y="0" width="1200" height="630" fill="url(#g1)" opacity="0.4"/>
  <defs>
    <linearGradient id="g1" x1="0" y1="0" x2="1200" y2="630">
      <stop offset="0%" stop-color="#D4A843" stop-opacity="0.15"/>
      <stop offset="100%" stop-color="#0B0F1A" stop-opacity="0"/>
    </linearGradient>
    <linearGradient id="gold" x1="0" y1="0" x2="1" y2="1">
      <stop offset="0%" stop-color="#D4A843"/>
      <stop offset="100%" stop-color="#B8912E"/>
    </linearGradient>
  </defs>
  <!-- Grid lines -->
  <g opacity="0.06" stroke="#94A3B8" stroke-width="1">
    <line x1="100" y1="0" x2="100" y2="630"/><line x1="300" y1="0" x2="300" y2="630"/>
    <line x1="500" y1="0" x2="500" y2="630"/><line x1="700" y1="0" x2="700" y2="630"/>
    <line x1="900" y1="0" x2="900" y2="630"/><line x1="1100" y1="0" x2="1100" y2="630"/>
    <line x1="0" y1="100" x2="1200" y2="100"/><line x1="0" y1="250" x2="1200" y2="250"/>
    <line x1="0" y1="400" x2="1200" y2="400"/><line x1="0" y1="530" x2="1200" y2="530"/>
  </g>
  <!-- Dashboard mockup -->
  <rect x="580" y="80" width="540" height="380" rx="16" fill="#111827" stroke="#1E293B" stroke-width="2"/>
  <rect x="580" y="80" width="540" height="36" rx="16" fill="#1E293B"/>
  <circle cx="602" cy="98" r="5" fill="#F87171"/><circle cx="618" cy="98" r="5" fill="#FB923C"/><circle cx="634" cy="98" r="5" fill="#34D399"/>
  <!-- Chart bars -->
  <rect x="610" y="300" width="40" height="130" rx="4" fill="#D4A843" opacity="0.8"/>
  <rect x="665" y="250" width="40" height="180" rx="4" fill="#60A5FA" opacity="0.8"/>
  <rect x="720" y="280" width="40" height="150" rx="4" fill="#34D399" opacity="0.8"/>
  <rect x="775" y="320" width="40" height="110" rx="4" fill="#A78BFA" opacity="0.8"/>
  <rect x="830" y="340" width="40" height="90" rx="4" fill="#FB923C" opacity="0.8"/>
  <!-- Pie chart -->
  <circle cx="980" cy="260" r="80" fill="none" stroke="#1E293B" stroke-width="24"/>
  <circle cx="980" cy="260" r="80" fill="none" stroke="#D4A843" stroke-width="24" stroke-dasharray="150 353" stroke-dashoffset="-20" stroke-linecap="round"/>
  <circle cx="980" cy="260" r="80" fill="none" stroke="#60A5FA" stroke-width="24" stroke-dasharray="100 403" stroke-dashoffset="-170" stroke-linecap="round"/>
  <circle cx="980" cy="260" r="80" fill="none" stroke="#34D399" stroke-width="24" stroke-dasharray="80 423" stroke-dashoffset="-270" stroke-linecap="round"/>
  <!-- Stats row -->
  <rect x="610" y="140" width="110" height="60" rx="8" fill="#0B0F1A" stroke="#1E293B"/>
  <rect x="730" y="140" width="110" height="60" rx="8" fill="#0B0F1A" stroke="#1E293B"/>
  <rect x="850" y="140" width="110" height="60" rx="8" fill="#0B0F1A" stroke="#1E293B"/>
  <rect x="970" y="140" width="110" height="60" rx="8" fill="#0B0F1A" stroke="#1E293B"/>
  <text x="665" y="165" text-anchor="middle" fill="#475569" font-family="system-ui" font-size="10" font-weight="600">PORTFOLIO</text>
  <text x="665" y="185" text-anchor="middle" fill="#D4A843" font-family="monospace" font-size="16" font-weight="800">$1.24M</text>
  <text x="785" y="165" text-anchor="middle" fill="#475569" font-family="system-ui" font-size="10" font-weight="600">HARD ASSETS</text>
  <text x="785" y="185" text-anchor="middle" fill="#34D399" font-family="monospace" font-size="16" font-weight="800">72.4%</text>
  <!-- Left text area -->
  <text x="80" y="180" fill="#F1F5F9" font-family="system-ui" font-size="42" font-weight="900" letter-spacing="-1">Why Track</text>
  <text x="80" y="230" fill="#F1F5F9" font-family="system-ui" font-size="42" font-weight="900" letter-spacing="-1">Hard Assets</text>
  <text x="80" y="280" fill="#D4A843" font-family="system-ui" font-size="42" font-weight="900" letter-spacing="-1">Separately</text>
  <text x="80" y="340" fill="#94A3B8" font-family="system-ui" font-size="16" font-weight="400">Your brokerage can't track the gold in your</text>
  <text x="80" y="365" fill="#94A3B8" font-family="system-ui" font-size="16" font-weight="400">safe or the syndication LP you wired into.</text>
  <!-- Gold bar icons -->
  <rect x="80" y="420" width="60" height="30" rx="4" fill="url(#gold)" opacity="0.9"/>
  <rect x="155" y="420" width="60" height="30" rx="4" fill="url(#gold)" opacity="0.7"/>
  <rect x="230" y="420" width="60" height="30" rx="4" fill="url(#gold)" opacity="0.5"/>
  <!-- Brand -->
  <rect x="80" y="530" width="36" height="36" rx="10" fill="url(#gold)"/>
  <text x="91" y="555" fill="#0B0F1A" font-family="system-ui" font-size="20" font-weight="900">H</text>
  <text x="128" y="555" fill="#F1F5F9" font-family="system-ui" font-size="16" font-weight="800">HardAssets.io</text>
</svg>
