<svg xmlns="http://www.w3.org/2000/svg" viewBox="0 0 1200 630" fill="none">
  <rect width="1200" height="630" fill="#0B0F1A"/>
  <defs>
    <linearGradient id="gld" x1="0" y1="0" x2="1" y2="1">
      <stop offset="0%" stop-color="#D4A843"/><stop offset="100%" stop-color="#B8912E"/>
    </linearGradient>
    <linearGradient id="sky" x1="0" y1="0" x2="0" y2="1">
      <stop offset="0%" stop-color="#1E293B"/><stop offset="100%" stop-color="#0B0F1A"/>
    </linearGradient>
  </defs>
  <!-- Subtle grid -->
  <g opacity="0.04" stroke="#94A3B8" stroke-width="1">
    <line x1="0" y1="500" x2="1200" y2="500"/>
    <line x1="0" y1="400" x2="1200" y2="400"/>
    <line x1="0" y1="300" x2="1200" y2="300"/>
  </g>
  <!-- Ground line -->
  <rect x="0" y="480" width="1200" height="2" fill="#1E293B"/>
  <!-- Building 1 - tall -->
  <rect x="120" y="160" width="140" height="320" rx="4" fill="#111827" stroke="#1E293B" stroke-width="2"/>
  <g opacity="0.6">
    <rect x="140" y="185" width="20" height="20" rx="2" fill="#D4A843" opacity="0.4"/>
    <rect x="170" y="185" width="20" height="20" rx="2" fill="#60A5FA" opacity="0.3"/>
    <rect x="200" y="185" width="20" height="20" rx="2" fill="#D4A843" opacity="0.5"/>
    <rect x="230" y="185" width="20" height="20" rx="2" fill="#60A5FA" opacity="0.2"/>
    <rect x="140" y="220" width="20" height="20" rx="2" fill="#60A5FA" opacity="0.4"/>
    <rect x="170" y="220" width="20" height="20" rx="2" fill="#D4A843" opacity="0.3"/>
    <rect x="200" y="220" width="20" height="20" rx="2" fill="#60A5FA" opacity="0.5"/>
    <rect x="230" y="220" width="20" height="20" rx="2" fill="#D4A843" opacity="0.2"/>
    <rect x="140" y="255" width="20" height="20" rx="2" fill="#D4A843" opacity="0.3"/>
    <rect x="170" y="255" width="20" height="20" rx="2" fill="#60A5FA" opacity="0.5"/>
    <rect x="200" y="255" width="20" height="20" rx="2" fill="#D4A843" opacity="0.4"/>
    <rect x="230" y="255" width="20" height="20" rx="2" fill="#60A5FA" opacity="0.3"/>
    <rect x="140" y="290" width="20" height="20" rx="2" fill="#60A5FA" opacity="0.4"/>
    <rect x="170" y="290" width="20" height="20" rx="2" fill="#D4A843" opacity="0.5"/>
    <rect x="200" y="290" width="20" height="20" rx="2" fill="#60A5FA" opacity="0.3"/>
    <rect x="230" y="290" width="20" height="20" rx="2" fill="#D4A843" opacity="0.4"/>
    <rect x="140" y="325" width="20" height="20" rx="2" fill="#D4A843" opacity="0.5"/>
    <rect x="170" y="325" width="20" height="20" rx="2" fill="#60A5FA" opacity="0.4"/>
    <rect x="200" y="325" width="20" height="20" rx="2" fill="#D4A843" opacity="0.3"/>
    <rect x="230" y="325" width="20" height="20" rx="2" fill="#60A5FA" opacity="0.5"/>
  </g>
  <text x="190" y="145" text-anchor="middle" fill="#D4A843" font-family="system-ui" font-size="11" font-weight="700" opacity="0.8">MULTIFAMILY</text>
  <!-- Building 2 - medium -->
  <rect x="300" y="240" width="120" height="240" rx="4" fill="#111827" stroke="#1E293B" stroke-width="2"/>
  <g opacity="0.6">
    <rect x="318" y="265" width="16" height="16" rx="2" fill="#34D399" opacity="0.4"/>
    <rect x="342" y="265" width="16" height="16" rx="2" fill="#34D399" opacity="0.5"/>
    <rect x="366" y="265" width="16" height="16" rx="2" fill="#34D399" opacity="0.3"/>
    <rect x="390" y="265" width="16" height="16" rx="2" fill="#34D399" opacity="0.4"/>
    <rect x="318" y="295" width="16" height="16" rx="2" fill="#34D399" opacity="0.5"/>
    <rect x="342" y="295" width="16" height="16" rx="2" fill="#34D399" opacity="0.3"/>
    <rect x="366" y="295" width="16" height="16" rx="2" fill="#34D399" opacity="0.4"/>
    <rect x="390" y="295" width="16" height="16" rx="2" fill="#34D399" opacity="0.5"/>
  </g>
  <text x="360" y="225" text-anchor="middle" fill="#34D399" font-family="system-ui" font-size="11" font-weight="700" opacity="0.8">SELF-STORAGE</text>
  <!-- Building 3 - warehouse -->
  <rect x="460" y="320" width="160" height="160" rx="4" fill="#111827" stroke="#1E293B" stroke-width="2"/>
  <rect x="500" y="400" width="40" height="80" rx="2" fill="#1E293B"/>
  <rect x="560" y="400" width="40" height="80" rx="2" fill="#1E293B"/>
  <text x="540" y="305" text-anchor="middle" fill="#A78BFA" font-family="system-ui" font-size="11" font-weight="700" opacity="0.8">INDUSTRIAL</text>
  <!-- Flow diagram: Sponsor -> LPs -> Property -->
  <rect x="720" y="100" width="200" height="80" rx="14" fill="#111827" stroke="#D4A843" stroke-width="2"/>
  <text x="820" y="135" text-anchor="middle" fill="#D4A843" font-family="system-ui" font-size="14" font-weight="700">GP / Sponsor</text>
  <text x="820" y="158" text-anchor="middle" fill="#475569" font-family="system-ui" font-size="11">Manages the deal</text>
  <!-- Arrow down -->
  <line x1="820" y1="180" x2="820" y2="220" stroke="#D4A843" stroke-width="2" opacity="0.5"/>
  <polygon points="812,218 820,230 828,218" fill="#D4A843" opacity="0.5"/>
  <!-- LP investors -->
  <rect x="680" y="230" width="100" height="64" rx="10" fill="#111827" stroke="#60A5FA" stroke-width="2"/>
  <text x="730" y="258" text-anchor="middle" fill="#60A5FA" font-family="system-ui" font-size="12" font-weight="700">LP 1</text>
  <text x="730" y="278" text-anchor="middle" fill="#475569" font-family="monospace" font-size="10">$75K</text>
  <rect x="800" y="230" width="100" height="64" rx="10" fill="#111827" stroke="#60A5FA" stroke-width="2"/>
  <text x="850" y="258" text-anchor="middle" fill="#60A5FA" font-family="system-ui" font-size="12" font-weight="700">LP 2</text>
  <text x="850" y="278" text-anchor="middle" fill="#475569" font-family="monospace" font-size="10">$150K</text>
  <rect x="920" y="230" width="100" height="64" rx="10" fill="#111827" stroke="#60A5FA" stroke-width="2"/>
  <text x="970" y="258" text-anchor="middle" fill="#60A5FA" font-family="system-ui" font-size="12" font-weight="700">LP 3</text>
  <text x="970" y="278" text-anchor="middle" fill="#475569" font-family="monospace" font-size="10">$100K</text>
  <!-- Arrow down -->
  <line x1="820" y1="294" x2="820" y2="340" stroke="#60A5FA" stroke-width="2" opacity="0.5"/>
  <polygon points="812,338 820,350 828,338" fill="#60A5FA" opacity="0.5"/>
  <!-- Returns box -->
  <rect x="720" y="350" width="200" height="80" rx="14" fill="#111827" stroke="#34D399" stroke-width="2"/>
  <text x="820" y="382" text-anchor="middle" fill="#34D399" font-family="system-ui" font-size="14" font-weight="700">Cash Flow</text>
  <text x="820" y="408" text-anchor="middle" fill="#34D399" font-family="monospace" font-size="16" font-weight="800">8% Pref Return</text>
  <!-- Key metrics -->
  <rect x="680" y="460" width="130" height="50" rx="8" fill="#111827" stroke="#1E293B"/>
  <text x="745" y="482" text-anchor="middle" fill="#475569" font-family="system-ui" font-size="10" font-weight="600">PROJ. IRR</text>
  <text x="745" y="500" text-anchor="middle" fill="#D4A843" font-family="monospace" font-size="16" font-weight="800">15.2%</text>
  <rect x="830" y="460" width="130" height="50" rx="8" fill="#111827" stroke="#1E293B"/>
  <text x="895" y="482" text-anchor="middle" fill="#475569" font-family="system-ui" font-size="10" font-weight="600">HOLD PERIOD</text>
  <text x="895" y="500" text-anchor="middle" fill="#60A5FA" font-family="monospace" font-size="16" font-weight="800">5 Years</text>
  <!-- Title -->
  <text x="600" y="565" text-anchor="middle" fill="#F1F5F9" font-family="system-ui" font-size="26" font-weight="900">Real Estate Syndications Explained</text>
  <text x="600" y="595" text-anchor="middle" fill="#94A3B8" font-family="system-ui" font-size="14">A Guide for LP Investors — HardAssets.io</text>
</svg>
